<mxfile host="Electron" modified="2023-08-03T23:15:31.599Z" agent="Mozilla/5.0 (Macintosh; Intel Mac OS X 10_15_7) AppleWebKit/537.36 (KHTML, like Gecko) draw.io/21.1.2 Chrome/106.0.5249.199 Electron/21.4.3 Safari/537.36" etag="-ObcpIrs7J7D6HWfzmYb" version="21.1.2" type="device" pages="2">
  <diagram name="Storage Area provisioning and unprovisioning" id="HlEBFxBSwHhaApRulJSV">
    <mxGraphModel dx="4776" dy="4010" grid="1" gridSize="10" guides="1" tooltips="1" connect="1" arrows="1" fold="1" page="1" pageScale="1" pageWidth="2336" pageHeight="1654" math="0" shadow="0">
      <root>
        <mxCell id="CrBskSO4nDhFndBRX1B0-0" />
        <mxCell id="CrBskSO4nDhFndBRX1B0-1" parent="CrBskSO4nDhFndBRX1B0-0" />
        <mxCell id="1LrZQP8tYeefJCKVqhzE-22" value="&lt;font style=&quot;font-size: 25px;&quot;&gt;Snowflake SP&lt;/font&gt;" style="rounded=0;whiteSpace=wrap;html=1;hachureGap=4;fontFamily=Nunito;fontSize=20;verticalAlign=top;fillColor=#dae8fc;strokeColor=#6c8ebf;fontSource=https%3A%2F%2Ffonts.googleapis.com%2Fcss%3Ffamily%3DNunito;" parent="CrBskSO4nDhFndBRX1B0-1" vertex="1">
          <mxGeometry x="360" y="-1120" width="681" height="560" as="geometry" />
        </mxCell>
        <mxCell id="CrBskSO4nDhFndBRX1B0-4" value="1 - Validate provisioning request" style="shape=process;whiteSpace=wrap;html=1;backgroundOutline=1;hachureGap=4;fontFamily=Nunito;fontSize=20;align=left;spacingLeft=8;fontSource=https%3A%2F%2Ffonts.googleapis.com%2Fcss%3Ffamily%3DNunito;" parent="CrBskSO4nDhFndBRX1B0-1" vertex="1">
          <mxGeometry x="390.25" y="-1030" width="620" height="60" as="geometry" />
        </mxCell>
        <mxCell id="CrBskSO4nDhFndBRX1B0-27" value="&lt;span style=&quot;background-color: initial;&quot;&gt;The corresponding unprovisioning operation is very simple: the tables and associated roles are eliminated.&amp;nbsp;&lt;/span&gt;" style="shape=note;whiteSpace=wrap;html=1;backgroundOutline=1;darkOpacity=0.05;hachureGap=4;fontFamily=Nunito;fontSize=20;align=left;verticalAlign=top;spacingLeft=4;fontSource=https%3A%2F%2Ffonts.googleapis.com%2Fcss%3Ffamily%3DNunito;" parent="CrBskSO4nDhFndBRX1B0-1" vertex="1">
          <mxGeometry x="1360" y="-1400" width="360" height="202.5" as="geometry" />
        </mxCell>
        <mxCell id="JZihHBsl7QY_d6qNJ1pM-1" value="&lt;font data-font-src=&quot;https://fonts.googleapis.com/css?family=Nunito&quot; face=&quot;Nunito&quot;&gt;Idempotent, ie does not fail if something it provisions already exists.&lt;/font&gt;" style="shape=callout;whiteSpace=wrap;html=1;perimeter=calloutPerimeter;hachureGap=4;fontFamily=Architects Daughter;fontSource=https%3A%2F%2Ffonts.googleapis.com%2Fcss%3Ffamily%3DArchitects%2BDaughter;fontSize=20;position2=0;size=40;position=0.13;" parent="CrBskSO4nDhFndBRX1B0-1" vertex="1">
          <mxGeometry x="1041" y="-1250" width="241" height="150" as="geometry" />
        </mxCell>
        <mxCell id="1LrZQP8tYeefJCKVqhzE-0" style="edgeStyle=orthogonalEdgeStyle;shape=connector;curved=1;rounded=0;hachureGap=4;orthogonalLoop=1;jettySize=auto;html=1;entryX=0;entryY=0.5;entryDx=0;entryDy=0;labelBackgroundColor=default;strokeColor=default;fontFamily=Nunito;fontSize=16;fontColor=default;endArrow=classic;fontSource=https%3A%2F%2Ffonts.googleapis.com%2Fcss%3Ffamily%3DNunito;" parent="CrBskSO4nDhFndBRX1B0-1" source="1LrZQP8tYeefJCKVqhzE-4" target="1LrZQP8tYeefJCKVqhzE-7" edge="1">
          <mxGeometry relative="1" as="geometry" />
        </mxCell>
        <mxCell id="1LrZQP8tYeefJCKVqhzE-1" value="Deploy,&lt;br&gt;update DP" style="edgeLabel;html=1;align=center;verticalAlign=middle;resizable=0;points=[];fontSize=16;fontFamily=Nunito;fontColor=default;fontSource=https%3A%2F%2Ffonts.googleapis.com%2Fcss%3Ffamily%3DNunito;" parent="1LrZQP8tYeefJCKVqhzE-0" vertex="1" connectable="0">
          <mxGeometry x="-0.0027" y="-2" relative="1" as="geometry">
            <mxPoint x="7" y="-22" as="offset" />
          </mxGeometry>
        </mxCell>
        <mxCell id="1LrZQP8tYeefJCKVqhzE-4" value="DP team" style="shape=umlActor;verticalLabelPosition=bottom;verticalAlign=top;html=1;outlineConnect=0;hachureGap=4;fontFamily=Nunito;fontSize=16;fontColor=default;fontSource=https%3A%2F%2Ffonts.googleapis.com%2Fcss%3Ffamily%3DNunito;" parent="CrBskSO4nDhFndBRX1B0-1" vertex="1">
          <mxGeometry x="369" y="-1400" width="60" height="117.5" as="geometry" />
        </mxCell>
        <mxCell id="1LrZQP8tYeefJCKVqhzE-5" value="" style="edgeStyle=orthogonalEdgeStyle;shape=connector;curved=1;rounded=0;hachureGap=4;orthogonalLoop=1;jettySize=auto;html=1;labelBackgroundColor=default;strokeColor=default;fontFamily=Nunito;fontSize=16;fontColor=default;endArrow=classic;fontSource=https%3A%2F%2Ffonts.googleapis.com%2Fcss%3Ffamily%3DNunito;" parent="CrBskSO4nDhFndBRX1B0-1" source="1LrZQP8tYeefJCKVqhzE-7" target="1LrZQP8tYeefJCKVqhzE-9" edge="1">
          <mxGeometry relative="1" as="geometry" />
        </mxCell>
        <mxCell id="1LrZQP8tYeefJCKVqhzE-6" value="Deploy,&lt;br&gt;update DP" style="edgeLabel;html=1;align=center;verticalAlign=middle;resizable=0;points=[];fontSize=16;fontFamily=Nunito;fontColor=default;fontSource=https%3A%2F%2Ffonts.googleapis.com%2Fcss%3Ffamily%3DNunito;" parent="1LrZQP8tYeefJCKVqhzE-5" vertex="1" connectable="0">
          <mxGeometry x="0.3239" relative="1" as="geometry">
            <mxPoint x="-26" y="-24" as="offset" />
          </mxGeometry>
        </mxCell>
        <mxCell id="1LrZQP8tYeefJCKVqhzE-7" value="&lt;font style=&quot;font-size: 36px;&quot;&gt;Witboost&lt;/font&gt;" style="rounded=0;whiteSpace=wrap;html=1;hachureGap=4;fontFamily=Nunito;fontSize=20;verticalAlign=middle;fillColor=#fff2cc;strokeColor=#d6b656;fontSource=https%3A%2F%2Ffonts.googleapis.com%2Fcss%3Ffamily%3DNunito;glass=0;" parent="CrBskSO4nDhFndBRX1B0-1" vertex="1">
          <mxGeometry x="559" y="-1400" width="200" height="120" as="geometry" />
        </mxCell>
        <mxCell id="1LrZQP8tYeefJCKVqhzE-8" style="edgeStyle=orthogonalEdgeStyle;shape=connector;curved=1;rounded=0;hachureGap=4;orthogonalLoop=1;jettySize=auto;html=1;labelBackgroundColor=default;strokeColor=default;fontFamily=Nunito;fontSize=16;fontColor=default;endArrow=classic;fontSource=https%3A%2F%2Ffonts.googleapis.com%2Fcss%3Ffamily%3DNunito;entryX=0.5;entryY=0;entryDx=0;entryDy=0;" parent="CrBskSO4nDhFndBRX1B0-1" source="1LrZQP8tYeefJCKVqhzE-9" target="1LrZQP8tYeefJCKVqhzE-22" edge="1">
          <mxGeometry relative="1" as="geometry">
            <mxPoint x="-881.8900000000001" y="-593.25" as="targetPoint" />
          </mxGeometry>
        </mxCell>
        <mxCell id="1LrZQP8tYeefJCKVqhzE-9" value="Provisioning Coordinator" style="whiteSpace=wrap;html=1;fontSize=20;fontFamily=Nunito;fillColor=#fff2cc;strokeColor=#d6b656;rounded=0;hachureGap=4;fontSource=https%3A%2F%2Ffonts.googleapis.com%2Fcss%3Ffamily%3DNunito;glass=0;" parent="CrBskSO4nDhFndBRX1B0-1" vertex="1">
          <mxGeometry x="879" y="-1398.75" width="200" height="118.75" as="geometry" />
        </mxCell>
        <mxCell id="1LrZQP8tYeefJCKVqhzE-10" value="&lt;span style=&quot;color: rgb(0, 0, 0); font-style: normal; font-variant-ligatures: normal; font-variant-caps: normal; font-weight: 400; letter-spacing: normal; orphans: 2; text-align: center; text-indent: 0px; text-transform: none; widows: 2; word-spacing: 0px; -webkit-text-stroke-width: 0px; background-color: rgb(255, 255, 255); text-decoration-thickness: initial; text-decoration-style: initial; text-decoration-color: initial; float: none; display: inline !important;&quot;&gt;&lt;font style=&quot;font-size: 16px;&quot;&gt;Provisioning request&lt;/font&gt;&lt;/span&gt;" style="text;whiteSpace=wrap;html=1;fontSize=16;fontFamily=Nunito;fontColor=default;fontSource=https%3A%2F%2Ffonts.googleapis.com%2Fcss%3Ffamily%3DNunito;" parent="CrBskSO4nDhFndBRX1B0-1" vertex="1">
          <mxGeometry x="870" y="-1227" width="180" height="70" as="geometry" />
        </mxCell>
        <mxCell id="1LrZQP8tYeefJCKVqhzE-11" style="edgeStyle=orthogonalEdgeStyle;rounded=0;orthogonalLoop=1;jettySize=auto;html=1;curved=1;" parent="CrBskSO4nDhFndBRX1B0-1" source="1LrZQP8tYeefJCKVqhzE-22" target="1LrZQP8tYeefJCKVqhzE-24" edge="1">
          <mxGeometry relative="1" as="geometry" />
        </mxCell>
        <mxCell id="1LrZQP8tYeefJCKVqhzE-12" value="JDBC" style="edgeLabel;html=1;align=center;verticalAlign=middle;resizable=0;points=[];fontFamily=Nunito;fontSource=https%3A%2F%2Ffonts.googleapis.com%2Fcss%3Ffamily%3DNunito;fontSize=16;" parent="1LrZQP8tYeefJCKVqhzE-11" vertex="1" connectable="0">
          <mxGeometry x="0.0402" y="7" relative="1" as="geometry">
            <mxPoint y="3" as="offset" />
          </mxGeometry>
        </mxCell>
        <mxCell id="1LrZQP8tYeefJCKVqhzE-24" value="&lt;font style=&quot;font-size: 25px;&quot;&gt;Snowflake Account&lt;/font&gt;" style="shape=cylinder3;whiteSpace=wrap;html=1;boundedLbl=1;backgroundOutline=1;size=15;hachureGap=4;fontFamily=Nunito;fontSize=20;verticalAlign=top;fontSource=https%3A%2F%2Ffonts.googleapis.com%2Fcss%3Ffamily%3DNunito;" parent="CrBskSO4nDhFndBRX1B0-1" vertex="1">
          <mxGeometry x="1348.849041469714" y="-979.6299999999999" width="371.150958530286" height="279.25" as="geometry" />
        </mxCell>
        <mxCell id="OUe99izLN77k4eTkEIx0-5" value="" style="shape=image;verticalLabelPosition=bottom;labelBackgroundColor=default;verticalAlign=top;aspect=fixed;imageAspect=0;image=https://pbs.twimg.com/profile_images/1676633027647246337/_3-XUmcR_400x400.png;" parent="CrBskSO4nDhFndBRX1B0-1" vertex="1">
          <mxGeometry x="1474.42" y="-854" width="120" height="120" as="geometry" />
        </mxCell>
        <mxCell id="OUe99izLN77k4eTkEIx0-7" value="2 - Provision database" style="shape=process;whiteSpace=wrap;html=1;backgroundOutline=1;hachureGap=4;fontFamily=Nunito;fontSize=20;align=left;spacingLeft=8;fontSource=https%3A%2F%2Ffonts.googleapis.com%2Fcss%3Ffamily%3DNunito;" parent="CrBskSO4nDhFndBRX1B0-1" vertex="1">
          <mxGeometry x="390.25" y="-956" width="620" height="60" as="geometry" />
        </mxCell>
        <mxCell id="OUe99izLN77k4eTkEIx0-8" value="3 - Provision schema" style="shape=process;whiteSpace=wrap;html=1;backgroundOutline=1;hachureGap=4;fontFamily=Nunito;fontSize=20;align=left;spacingLeft=8;fontSource=https%3A%2F%2Ffonts.googleapis.com%2Fcss%3Ffamily%3DNunito;" parent="CrBskSO4nDhFndBRX1B0-1" vertex="1">
          <mxGeometry x="390.25" y="-882" width="620" height="60" as="geometry" />
        </mxCell>
        <mxCell id="OUe99izLN77k4eTkEIx0-9" value="4 - Provision tables" style="shape=process;whiteSpace=wrap;html=1;backgroundOutline=1;hachureGap=4;fontFamily=Nunito;fontSize=20;align=left;spacingLeft=8;fontSource=https%3A%2F%2Ffonts.googleapis.com%2Fcss%3Ffamily%3DNunito;" parent="CrBskSO4nDhFndBRX1B0-1" vertex="1">
          <mxGeometry x="390.25" y="-808" width="620" height="60" as="geometry" />
        </mxCell>
        <mxCell id="OUe99izLN77k4eTkEIx0-10" value="5 - Provision roles&amp;nbsp;" style="shape=process;whiteSpace=wrap;html=1;backgroundOutline=1;hachureGap=4;fontFamily=Nunito;fontSize=20;align=left;spacingLeft=8;fontSource=https%3A%2F%2Ffonts.googleapis.com%2Fcss%3Ffamily%3DNunito;" parent="CrBskSO4nDhFndBRX1B0-1" vertex="1">
          <mxGeometry x="390.25" y="-734" width="620" height="60" as="geometry" />
        </mxCell>
        <mxCell id="OUe99izLN77k4eTkEIx0-11" value="6 - Grant access to owner&amp;nbsp;" style="shape=process;whiteSpace=wrap;html=1;backgroundOutline=1;hachureGap=4;fontFamily=Nunito;fontSize=20;align=left;spacingLeft=8;fontSource=https%3A%2F%2Ffonts.googleapis.com%2Fcss%3Ffamily%3DNunito;" parent="CrBskSO4nDhFndBRX1B0-1" vertex="1">
          <mxGeometry x="390.75" y="-660" width="620" height="60" as="geometry" />
        </mxCell>
      </root>
    </mxGraphModel>
  </diagram>
  <diagram name="Output Port provisioning and unprovisioning" id="US5p2l8lcagGVq3vgqvi">
    <mxGraphModel dx="5970" dy="4599" grid="1" gridSize="10" guides="1" tooltips="1" connect="1" arrows="1" fold="1" page="1" pageScale="1" pageWidth="2336" pageHeight="1654" math="0" shadow="0">
      <root>
        <mxCell id="EOvdSNjuTBjOcIPykscT-0" />
        <mxCell id="EOvdSNjuTBjOcIPykscT-1" parent="EOvdSNjuTBjOcIPykscT-0" />
        <mxCell id="EOvdSNjuTBjOcIPykscT-2" value="&lt;font style=&quot;font-size: 25px;&quot;&gt;Snowflake SP&lt;/font&gt;" style="rounded=0;whiteSpace=wrap;html=1;hachureGap=4;fontFamily=Nunito;fontSize=20;verticalAlign=top;fillColor=#dae8fc;strokeColor=#6c8ebf;fontSource=https%3A%2F%2Ffonts.googleapis.com%2Fcss%3Ffamily%3DNunito;" parent="EOvdSNjuTBjOcIPykscT-1" vertex="1">
          <mxGeometry x="360" y="-1120" width="681" height="640" as="geometry" />
        </mxCell>
        <mxCell id="EOvdSNjuTBjOcIPykscT-3" value="1 - Validate provisioning request" style="shape=process;whiteSpace=wrap;html=1;backgroundOutline=1;hachureGap=4;fontFamily=Nunito;fontSize=20;align=left;spacingLeft=8;fontSource=https%3A%2F%2Ffonts.googleapis.com%2Fcss%3Ffamily%3DNunito;" parent="EOvdSNjuTBjOcIPykscT-1" vertex="1">
          <mxGeometry x="390.25" y="-1030" width="620" height="60" as="geometry" />
        </mxCell>
        <mxCell id="EOvdSNjuTBjOcIPykscT-4" value="&lt;span style=&quot;background-color: initial;&quot;&gt;The corresponding unprovisioning operation is very simple: the view and associated role is eliminated.&amp;nbsp;&lt;/span&gt;" style="shape=note;whiteSpace=wrap;html=1;backgroundOutline=1;darkOpacity=0.05;hachureGap=4;fontFamily=Nunito;fontSize=20;align=left;verticalAlign=top;spacingLeft=4;fontSource=https%3A%2F%2Ffonts.googleapis.com%2Fcss%3Ffamily%3DNunito;" parent="EOvdSNjuTBjOcIPykscT-1" vertex="1">
          <mxGeometry x="1360" y="-1400" width="360" height="202.5" as="geometry" />
        </mxCell>
        <mxCell id="EOvdSNjuTBjOcIPykscT-5" value="&lt;font data-font-src=&quot;https://fonts.googleapis.com/css?family=Nunito&quot; face=&quot;Nunito&quot;&gt;Idempotent, ie does not fail if something it provisions already exists.&lt;/font&gt;" style="shape=callout;whiteSpace=wrap;html=1;perimeter=calloutPerimeter;hachureGap=4;fontFamily=Architects Daughter;fontSource=https%3A%2F%2Ffonts.googleapis.com%2Fcss%3Ffamily%3DArchitects%2BDaughter;fontSize=20;position2=0;size=40;position=0.13;" parent="EOvdSNjuTBjOcIPykscT-1" vertex="1">
          <mxGeometry x="1041" y="-1250" width="241" height="150" as="geometry" />
        </mxCell>
        <mxCell id="EOvdSNjuTBjOcIPykscT-6" style="edgeStyle=orthogonalEdgeStyle;shape=connector;curved=1;rounded=0;hachureGap=4;orthogonalLoop=1;jettySize=auto;html=1;entryX=0;entryY=0.5;entryDx=0;entryDy=0;labelBackgroundColor=default;strokeColor=default;fontFamily=Nunito;fontSize=16;fontColor=default;endArrow=classic;fontSource=https%3A%2F%2Ffonts.googleapis.com%2Fcss%3Ffamily%3DNunito;" parent="EOvdSNjuTBjOcIPykscT-1" source="EOvdSNjuTBjOcIPykscT-8" target="EOvdSNjuTBjOcIPykscT-11" edge="1">
          <mxGeometry relative="1" as="geometry" />
        </mxCell>
        <mxCell id="EOvdSNjuTBjOcIPykscT-7" value="Deploy,&lt;br&gt;update DP" style="edgeLabel;html=1;align=center;verticalAlign=middle;resizable=0;points=[];fontSize=16;fontFamily=Nunito;fontColor=default;fontSource=https%3A%2F%2Ffonts.googleapis.com%2Fcss%3Ffamily%3DNunito;" parent="EOvdSNjuTBjOcIPykscT-6" vertex="1" connectable="0">
          <mxGeometry x="-0.0027" y="-2" relative="1" as="geometry">
            <mxPoint x="7" y="-22" as="offset" />
          </mxGeometry>
        </mxCell>
        <mxCell id="EOvdSNjuTBjOcIPykscT-8" value="DP team" style="shape=umlActor;verticalLabelPosition=bottom;verticalAlign=top;html=1;outlineConnect=0;hachureGap=4;fontFamily=Nunito;fontSize=16;fontColor=default;fontSource=https%3A%2F%2Ffonts.googleapis.com%2Fcss%3Ffamily%3DNunito;" parent="EOvdSNjuTBjOcIPykscT-1" vertex="1">
          <mxGeometry x="369" y="-1400" width="60" height="117.5" as="geometry" />
        </mxCell>
        <mxCell id="EOvdSNjuTBjOcIPykscT-9" value="" style="edgeStyle=orthogonalEdgeStyle;shape=connector;curved=1;rounded=0;hachureGap=4;orthogonalLoop=1;jettySize=auto;html=1;labelBackgroundColor=default;strokeColor=default;fontFamily=Nunito;fontSize=16;fontColor=default;endArrow=classic;fontSource=https%3A%2F%2Ffonts.googleapis.com%2Fcss%3Ffamily%3DNunito;" parent="EOvdSNjuTBjOcIPykscT-1" source="EOvdSNjuTBjOcIPykscT-11" target="EOvdSNjuTBjOcIPykscT-13" edge="1">
          <mxGeometry relative="1" as="geometry" />
        </mxCell>
        <mxCell id="EOvdSNjuTBjOcIPykscT-10" value="Deploy,&lt;br&gt;update DP" style="edgeLabel;html=1;align=center;verticalAlign=middle;resizable=0;points=[];fontSize=16;fontFamily=Nunito;fontColor=default;fontSource=https%3A%2F%2Ffonts.googleapis.com%2Fcss%3Ffamily%3DNunito;" parent="EOvdSNjuTBjOcIPykscT-9" vertex="1" connectable="0">
          <mxGeometry x="0.3239" relative="1" as="geometry">
            <mxPoint x="-26" y="-24" as="offset" />
          </mxGeometry>
        </mxCell>
        <mxCell id="EOvdSNjuTBjOcIPykscT-11" value="&lt;font style=&quot;font-size: 36px;&quot;&gt;Witboost&lt;/font&gt;" style="rounded=0;whiteSpace=wrap;html=1;hachureGap=4;fontFamily=Nunito;fontSize=20;verticalAlign=middle;fillColor=#fff2cc;strokeColor=#d6b656;fontSource=https%3A%2F%2Ffonts.googleapis.com%2Fcss%3Ffamily%3DNunito;glass=0;" parent="EOvdSNjuTBjOcIPykscT-1" vertex="1">
          <mxGeometry x="559" y="-1400" width="200" height="120" as="geometry" />
        </mxCell>
        <mxCell id="EOvdSNjuTBjOcIPykscT-12" style="edgeStyle=orthogonalEdgeStyle;shape=connector;curved=1;rounded=0;hachureGap=4;orthogonalLoop=1;jettySize=auto;html=1;labelBackgroundColor=default;strokeColor=default;fontFamily=Nunito;fontSize=16;fontColor=default;endArrow=classic;fontSource=https%3A%2F%2Ffonts.googleapis.com%2Fcss%3Ffamily%3DNunito;entryX=0.5;entryY=0;entryDx=0;entryDy=0;" parent="EOvdSNjuTBjOcIPykscT-1" source="EOvdSNjuTBjOcIPykscT-13" target="EOvdSNjuTBjOcIPykscT-2" edge="1">
          <mxGeometry relative="1" as="geometry">
            <mxPoint x="-881.8900000000001" y="-593.25" as="targetPoint" />
          </mxGeometry>
        </mxCell>
        <mxCell id="EOvdSNjuTBjOcIPykscT-13" value="Provisioning Coordinator" style="whiteSpace=wrap;html=1;fontSize=20;fontFamily=Nunito;fillColor=#fff2cc;strokeColor=#d6b656;rounded=0;hachureGap=4;fontSource=https%3A%2F%2Ffonts.googleapis.com%2Fcss%3Ffamily%3DNunito;glass=0;" parent="EOvdSNjuTBjOcIPykscT-1" vertex="1">
          <mxGeometry x="879" y="-1398.75" width="200" height="118.75" as="geometry" />
        </mxCell>
        <mxCell id="EOvdSNjuTBjOcIPykscT-14" value="&lt;span style=&quot;color: rgb(0, 0, 0); font-style: normal; font-variant-ligatures: normal; font-variant-caps: normal; font-weight: 400; letter-spacing: normal; orphans: 2; text-align: center; text-indent: 0px; text-transform: none; widows: 2; word-spacing: 0px; -webkit-text-stroke-width: 0px; background-color: rgb(255, 255, 255); text-decoration-thickness: initial; text-decoration-style: initial; text-decoration-color: initial; float: none; display: inline !important;&quot;&gt;&lt;font style=&quot;font-size: 16px;&quot;&gt;Provisioning request&lt;/font&gt;&lt;/span&gt;" style="text;whiteSpace=wrap;html=1;fontSize=16;fontFamily=Nunito;fontColor=default;fontSource=https%3A%2F%2Ffonts.googleapis.com%2Fcss%3Ffamily%3DNunito;" parent="EOvdSNjuTBjOcIPykscT-1" vertex="1">
          <mxGeometry x="870" y="-1227" width="180" height="70" as="geometry" />
        </mxCell>
        <mxCell id="EOvdSNjuTBjOcIPykscT-15" style="edgeStyle=orthogonalEdgeStyle;rounded=0;orthogonalLoop=1;jettySize=auto;html=1;curved=1;" parent="EOvdSNjuTBjOcIPykscT-1" source="EOvdSNjuTBjOcIPykscT-2" target="EOvdSNjuTBjOcIPykscT-17" edge="1">
          <mxGeometry relative="1" as="geometry" />
        </mxCell>
        <mxCell id="EOvdSNjuTBjOcIPykscT-16" value="JDBC" style="edgeLabel;html=1;align=center;verticalAlign=middle;resizable=0;points=[];fontFamily=Nunito;fontSource=https%3A%2F%2Ffonts.googleapis.com%2Fcss%3Ffamily%3DNunito;fontSize=16;" parent="EOvdSNjuTBjOcIPykscT-15" vertex="1" connectable="0">
          <mxGeometry x="0.0402" y="7" relative="1" as="geometry">
            <mxPoint y="3" as="offset" />
          </mxGeometry>
        </mxCell>
        <mxCell id="EOvdSNjuTBjOcIPykscT-17" value="&lt;font style=&quot;font-size: 25px;&quot;&gt;Snowflake Account&lt;/font&gt;" style="shape=cylinder3;whiteSpace=wrap;html=1;boundedLbl=1;backgroundOutline=1;size=15;hachureGap=4;fontFamily=Nunito;fontSize=20;verticalAlign=top;fontSource=https%3A%2F%2Ffonts.googleapis.com%2Fcss%3Ffamily%3DNunito;" parent="EOvdSNjuTBjOcIPykscT-1" vertex="1">
          <mxGeometry x="1348.849041469714" y="-979.6299999999999" width="371.150958530286" height="279.25" as="geometry" />
        </mxCell>
        <mxCell id="EOvdSNjuTBjOcIPykscT-18" value="" style="shape=image;verticalLabelPosition=bottom;labelBackgroundColor=default;verticalAlign=top;aspect=fixed;imageAspect=0;image=https://pbs.twimg.com/profile_images/1676633027647246337/_3-XUmcR_400x400.png;" parent="EOvdSNjuTBjOcIPykscT-1" vertex="1">
          <mxGeometry x="1474.42" y="-854" width="120" height="120" as="geometry" />
        </mxCell>
        <mxCell id="EOvdSNjuTBjOcIPykscT-20" value="2 - Provision database" style="shape=process;whiteSpace=wrap;html=1;backgroundOutline=1;hachureGap=4;fontFamily=Nunito;fontSize=20;align=left;spacingLeft=8;fontSource=https%3A%2F%2Ffonts.googleapis.com%2Fcss%3Ffamily%3DNunito;" parent="EOvdSNjuTBjOcIPykscT-1" vertex="1">
          <mxGeometry x="390.25" y="-956" width="620" height="60" as="geometry" />
        </mxCell>
        <mxCell id="EOvdSNjuTBjOcIPykscT-21" value="3 - Provision schema" style="shape=process;whiteSpace=wrap;html=1;backgroundOutline=1;hachureGap=4;fontFamily=Nunito;fontSize=20;align=left;spacingLeft=8;fontSource=https%3A%2F%2Ffonts.googleapis.com%2Fcss%3Ffamily%3DNunito;" parent="EOvdSNjuTBjOcIPykscT-1" vertex="1">
          <mxGeometry x="390.25" y="-882" width="620" height="60" as="geometry" />
        </mxCell>
        <mxCell id="EOvdSNjuTBjOcIPykscT-22" value="4 - Provision view" style="shape=process;whiteSpace=wrap;html=1;backgroundOutline=1;hachureGap=4;fontFamily=Nunito;fontSize=20;align=left;spacingLeft=8;fontSource=https%3A%2F%2Ffonts.googleapis.com%2Fcss%3Ffamily%3DNunito;" parent="EOvdSNjuTBjOcIPykscT-1" vertex="1">
          <mxGeometry x="390.25" y="-808" width="620" height="60" as="geometry" />
        </mxCell>
        <mxCell id="EOvdSNjuTBjOcIPykscT-23" value="5 - Provision roles&amp;nbsp;" style="shape=process;whiteSpace=wrap;html=1;backgroundOutline=1;hachureGap=4;fontFamily=Nunito;fontSize=20;align=left;spacingLeft=8;fontSource=https%3A%2F%2Ffonts.googleapis.com%2Fcss%3Ffamily%3DNunito;" parent="EOvdSNjuTBjOcIPykscT-1" vertex="1">
          <mxGeometry x="390.25" y="-734" width="620" height="60" as="geometry" />
        </mxCell>
        <mxCell id="EOvdSNjuTBjOcIPykscT-24" value="6 - Grant access to owner&amp;nbsp;" style="shape=process;whiteSpace=wrap;html=1;backgroundOutline=1;hachureGap=4;fontFamily=Nunito;fontSize=20;align=left;spacingLeft=8;fontSource=https%3A%2F%2Ffonts.googleapis.com%2Fcss%3Ffamily%3DNunito;" parent="EOvdSNjuTBjOcIPykscT-1" vertex="1">
          <mxGeometry x="390.75" y="-660" width="620" height="60" as="geometry" />
        </mxCell>
        <mxCell id="bVOwHkgO2Pc8JVZ7xMQr-0" value="7 - Validate view schema against declared schema&amp;nbsp;" style="shape=process;whiteSpace=wrap;html=1;backgroundOutline=1;hachureGap=4;fontFamily=Nunito;fontSize=20;align=left;spacingLeft=8;fontSource=https%3A%2F%2Ffonts.googleapis.com%2Fcss%3Ffamily%3DNunito;" parent="EOvdSNjuTBjOcIPykscT-1" vertex="1">
          <mxGeometry x="390.25" y="-590" width="620" height="60" as="geometry" />
        </mxCell>
      </root>
    </mxGraphModel>
  </diagram>
</mxfile>
